<svg width="20" height="20" viewBox="0 0 20 20" fill="none" xmlns="http://www.w3.org/2000/svg">
<path d="M18.3334 5.20834V9.45832C18.3334 10.5167 17.9834 11.4083 17.3584 12.025C16.7418 12.65 15.8501 13 14.7917 13V14.5083C14.7917 15.075 14.1584 15.4167 13.6917 15.1L12.8834 14.5667C12.9584 14.3083 12.9917 14.025 12.9917 13.725V10.3334C12.9917 8.63336 11.8584 7.5 10.1584 7.5H4.50008C4.38341 7.5 4.27508 7.50835 4.16675 7.51669V5.20834C4.16675 3.08334 5.58341 1.66667 7.70842 1.66667H14.7917C16.9167 1.66667 18.3334 3.08334 18.3334 5.20834Z" stroke="#B0A9A2" stroke-width="1.5" stroke-miterlimit="10" stroke-linecap="round" stroke-linejoin="round"/>
<path d="M12.9917 10.3334V13.725C12.9917 14.025 12.9584 14.3083 12.8834 14.5667C12.5751 15.7917 11.5584 16.5583 10.1584 16.5583H7.89175L5.37508 18.2333C5.00008 18.4917 4.50008 18.2167 4.50008 17.7667V16.5583C3.65008 16.5583 2.94175 16.275 2.45008 15.7833C1.95008 15.2833 1.66675 14.575 1.66675 13.725V10.3334C1.66675 8.75002 2.65008 7.65835 4.16675 7.51668C4.27508 7.50835 4.38341 7.5 4.50008 7.5H10.1584C11.8584 7.5 12.9917 8.63335 12.9917 10.3334Z" stroke="#B0A9A2" stroke-width="1.5" stroke-miterlimit="10" stroke-linecap="round" stroke-linejoin="round"/>
</svg>
