<svg width="29" height="12" viewBox="0 0 29 12" fill="none" xmlns="http://www.w3.org/2000/svg">
<path d="M3.86719 11.2124C6.55518 11.2124 8.15186 9.1104 8.15186 5.55083C8.15186 4.21049 7.89551 3.08257 7.40479 2.21098C6.69434 0.856003 5.47119 0.123581 3.92578 0.123581C1.62598 0.123581 0 1.66899 0 3.83696C0 5.87309 1.46484 7.35258 3.479 7.35258C4.7168 7.35258 5.72021 6.77397 6.21826 5.77055H6.24023C6.24023 5.77055 6.26953 5.77055 6.27686 5.77055C6.2915 5.77055 6.34277 5.77055 6.34277 5.77055C6.34277 8.18755 5.42725 9.63042 3.88184 9.63042C2.97363 9.63042 2.27051 9.13237 2.02881 8.33403H0.146484C0.461426 10.0699 1.93359 11.2124 3.86719 11.2124ZM3.93311 5.85112C2.71729 5.85112 1.85303 4.98686 1.85303 3.77837C1.85303 2.59917 2.76123 1.69829 3.94043 1.69829C5.11963 1.69829 6.02783 2.61382 6.02783 3.80766C6.02783 4.98686 5.1416 5.85112 3.93311 5.85112Z" fill="#1A1817"/>
<path d="M11.243 11.1099C11.9388 11.1099 12.4148 10.6119 12.4148 9.95268C12.4148 9.28618 11.9388 8.79546 11.243 8.79546C10.5545 8.79546 10.0711 9.28618 10.0711 9.95268C10.0711 10.6119 10.5545 11.1099 11.243 11.1099ZM11.243 5.61674C11.9388 5.61674 12.4148 5.12602 12.4148 4.46684C12.4148 3.80034 11.9388 3.30962 11.243 3.30962C10.5545 3.30962 10.0711 3.80034 10.0711 4.46684C10.0711 5.12602 10.5545 5.61674 11.243 5.61674Z" fill="#1A1817"/>
<path d="M19.2706 10.9561H21.0797V8.98589H22.5079V7.38921H21.0797V0.387253H18.4137C16.546 3.19975 15.0592 5.55083 14.107 7.30132V8.98589H19.2706V10.9561ZM15.8575 7.32329C17.088 5.15532 18.1866 3.41948 19.1974 1.92534H19.2999V7.43315H15.8575V7.32329Z" fill="#1A1817"/>
<path d="M26.5365 10.9561H28.4262V0.387253H26.5438L23.7826 2.32085V4.13725L26.412 2.29155H26.5365V10.9561Z" fill="#1A1817"/>
</svg>
