<svg width="28" height="28" viewBox="0 0 28 28" fill="none" xmlns="http://www.w3.org/2000/svg">
<path d="M13.556 3.48061L13.5585 3.48037C14.8609 3.36316 16.108 3.76847 17.0772 4.64601L13.556 3.48061ZM13.556 3.48061C12.4232 3.58849 11.3926 4.21322 10.6521 5.07233C9.91083 5.93238 9.42836 7.06313 9.42836 8.23669V8.84336V9.34336H9.92836H18.0717H18.5717M13.556 3.48061L18.5717 9.34336M18.5717 9.34336V8.84336M18.5717 9.34336V8.84336M18.5717 8.84336V8.02669C18.5717 6.74437 18.0353 5.51232 17.0773 4.64604L18.5717 8.84336ZM19.1934 8.91336V9.36265L19.6401 9.41051C21.2015 9.57781 22.2442 10.048 22.9145 10.7872C23.8791 11.8739 23.8843 13.3539 23.7585 14.4897L22.9422 21.0079L22.9422 21.0079L22.9413 21.0162C22.8228 22.1103 22.5492 23.1157 21.787 23.8592C21.0282 24.5992 19.6938 25.1667 17.255 25.1667H10.745C8.3062 25.1667 6.97202 24.5992 6.21341 23.858C5.4511 23.1132 5.17731 22.1051 5.05882 21.0048L5.0589 21.0048L5.05779 20.996L4.24161 14.5015C4.11521 13.3493 4.11093 11.873 5.08474 10.7881C5.75499 10.0484 6.79792 9.57788 8.35996 9.41051L8.8067 9.36265V8.91336V8.23669C8.8067 5.55942 10.9736 3.09676 13.4873 2.85446C14.9708 2.71589 16.3939 3.18439 17.4896 4.18435L17.4896 4.18435L17.4918 4.18631C18.5756 5.16381 19.1934 6.56837 19.1934 8.02669V8.91336ZM9.8117 15.8417H9.82336C10.7412 15.8417 11.49 15.0928 11.49 14.175C11.49 13.254 10.7379 12.5084 9.8117 12.5084C8.89389 12.5084 8.14503 13.2572 8.14503 14.175C8.14503 15.0928 8.89389 15.8417 9.8117 15.8417ZM17.9784 15.8417H17.99C18.9078 15.8417 19.6567 15.0928 19.6567 14.175C19.6567 13.254 18.9046 12.5084 17.9784 12.5084C17.0606 12.5084 16.3117 13.2572 16.3117 14.175C16.3117 15.0928 17.0606 15.8417 17.9784 15.8417Z" fill="#5E5D5C" stroke="#5E5D5C"/>
</svg>
