<svg width="139" height="115" viewBox="0 0 139 115" fill="none" xmlns="http://www.w3.org/2000/svg">
<path d="M89.0508 133.388C111.668 133.388 130.003 125.546 130.003 115.872C130.003 106.198 111.668 98.3565 89.0508 98.3565C66.4334 98.3565 48.0984 106.198 48.0984 115.872C48.0984 125.546 66.4334 133.388 89.0508 133.388Z" fill="#D3805C"/>
<path d="M129.824 115.872C129.824 124.198 116.245 131.165 98.0425 132.945C105.41 126.594 110.066 117.256 110.066 106.849C110.066 104.768 109.879 102.726 109.524 100.745C121.666 103.781 129.824 109.418 129.824 115.872Z" fill="#9D5852"/>
<path d="M0.859375 29.3557H177.242V36.6096C177.242 84.5563 137.727 123.48 89.0509 123.48C40.3749 123.48 0.859375 84.5563 0.859375 36.6096V29.3557Z" fill="#9D5852"/>
<path d="M177.243 31.125V38.1878C177.243 84.9031 137.759 122.772 89.0511 122.772C79.4776 122.772 70.2633 121.311 61.6345 118.604C62.3889 118.629 63.1469 118.639 63.9049 118.639C105.669 118.639 139.523 86.1699 139.523 46.114C139.523 40.9761 138.966 35.9621 137.903 31.125H177.243Z" fill="#604251"/>
<path d="M177.422 29.975C177.422 32.9013 176.114 35.725 173.679 38.386C173.169 38.9486 172.605 39.5006 171.994 40.0491C171.006 40.9337 169.896 41.7935 168.664 42.6357C167.618 43.3469 166.49 44.044 165.276 44.7234C164.123 45.371 162.895 46.0008 161.598 46.6165C160.014 47.3631 158.329 48.085 156.543 48.7821C154.862 49.4367 153.091 50.0665 151.245 50.6681C145.152 52.6567 138.187 54.3552 130.556 55.6963C128.739 56.0112 126.882 56.312 124.992 56.588C123.203 56.8499 121.382 57.094 119.535 57.3169C118.181 57.4797 116.812 57.6319 115.429 57.7734C114.129 57.9079 112.818 58.0317 111.496 58.1449C110.134 58.2617 108.758 58.3679 107.372 58.4634C101.516 58.8668 95.4487 59.0791 89.2304 59.0791C56.7163 59.0791 28.3118 53.2724 13.0193 44.6314C5.40361 40.3251 1.03894 35.3181 1.03894 29.975C1.03894 13.8995 40.5221 0.870789 89.2304 0.870789C137.939 0.870789 177.422 13.8995 177.422 29.975Z" fill="#D3805C"/>
<path d="M171.8 29.9749C171.8 45.056 134.753 57.2815 89.0511 57.2815C47.2904 57.2815 12.7538 47.0729 7.11027 33.8035C6.57861 32.5544 6.302 31.2735 6.302 29.9749C6.302 14.8938 43.3496 2.66827 89.0511 2.66827C134.753 2.66827 171.276 14.7204 171.793 29.6564C171.797 29.7626 171.8 29.8687 171.8 29.9749Z" fill="#604251"/>
<path d="M171.8 29.9749C171.8 32.0838 171.074 34.1397 169.702 36.1106C168.947 37.197 167.999 38.255 166.864 39.2882C165.944 40.1233 164.906 40.9407 163.749 41.7404C162.679 42.4799 161.508 43.2018 160.243 43.9024C158.727 44.7446 157.078 45.5584 155.304 46.3369C153.633 47.0729 151.855 47.7806 149.973 48.4529C144.347 50.4734 137.809 52.2108 130.574 53.5979C128.724 53.9518 126.824 54.2844 124.884 54.5887C124.155 54.7055 123.418 54.8187 122.675 54.9284C121.593 55.0876 120.498 55.2398 119.388 55.3849C119.075 55.4273 118.763 55.4662 118.45 55.5016C117.401 55.6361 116.342 55.7599 115.275 55.8767C114.962 55.9121 114.646 55.9475 114.33 55.9793C113.342 56.0855 112.343 56.1846 111.337 56.2766C110.856 56.3226 110.371 56.365 109.886 56.4039C109.685 56.4252 109.48 56.4393 109.279 56.457C108.593 56.5172 107.907 56.5703 107.217 56.6233C106.524 56.6729 105.83 56.7224 105.133 56.7649C104.602 56.8003 104.067 56.8321 103.531 56.8639C101.635 56.9772 99.7163 57.0656 97.7764 57.1329C97.428 57.1435 97.0795 57.1541 96.7274 57.1683C96.0485 57.1895 95.366 57.2072 94.6834 57.2213C92.8226 57.2603 90.9438 57.2815 89.0507 57.2815C88.3502 57.2815 87.6497 57.278 86.9563 57.2744C84.5064 57.2532 82.0852 57.2001 79.6963 57.1081C79.1574 57.0904 78.6222 57.0692 78.0869 57.0444C76.9194 56.9913 75.7627 56.9347 74.6095 56.8639C73.6432 56.8109 72.6805 56.7507 71.7249 56.6835C71.0244 56.6339 70.3275 56.5809 69.6342 56.5243C68.8439 56.4641 68.0571 56.3969 67.2776 56.3261C66.2574 56.2341 65.2443 56.1386 64.2421 56.0324C63.8757 55.9935 63.5093 55.9546 63.1464 55.9156C61.7167 55.7599 60.3049 55.5936 58.9111 55.4132C58.031 55.2999 57.158 55.1832 56.2923 55.0593C46.769 53.7041 38.1726 51.7756 30.9018 49.4048C28.283 48.5485 25.8366 47.6391 23.5806 46.6802C21.8958 45.9618 20.3188 45.2152 18.8567 44.4403C17.3659 43.6547 15.9936 42.8409 14.7507 42.0058C13.303 41.0327 12.0241 40.0278 10.9284 38.991C9.16462 37.3314 7.87498 35.594 7.1134 33.8035C12.1319 20.0423 47.642 9.37373 90.7031 9.37373C129.328 9.37373 161.874 17.9546 171.796 29.6564C171.8 29.7626 171.803 29.8687 171.803 29.9749H171.8Z" fill="#D1634A"/>
<path d="M103.636 38.2975C102.554 38.4567 101.459 38.6089 100.349 38.7539C100.036 38.7964 99.7236 38.8353 99.4111 38.8707C98.3621 39.0052 97.3024 39.129 96.2355 39.2458C95.9229 39.2812 95.6068 39.3166 95.2907 39.3484C94.3028 39.4546 93.3041 39.5537 92.2983 39.6457C91.8169 39.6917 91.3319 39.7341 90.847 39.773C90.6458 39.7943 90.441 39.8084 90.2399 39.8261C89.5537 39.8863 88.8676 39.9393 88.1779 39.9924C87.4846 40.042 86.7913 40.0915 86.0943 40.134C85.5627 40.1694 85.0274 40.2012 84.4922 40.233C82.5954 40.3463 80.6771 40.4347 78.7373 40.502C78.3888 40.5126 78.0404 40.5232 77.6883 40.5374C77.0094 40.5586 76.3268 40.5763 75.6443 40.5904C73.7835 40.6294 71.9047 40.6506 70.0115 40.6506C69.311 40.6506 68.6105 40.647 67.9172 40.6435C64.9176 40.6187 61.9575 40.5409 59.0478 40.4135C56.8996 40.318 54.7765 40.1977 52.6858 40.0526C51.1878 39.9464 49.7041 39.8261 48.2385 39.6952C46.8446 39.5713 45.4688 39.4333 44.1073 39.2847C42.6776 39.129 41.2658 38.9627 39.8719 38.7823C46.3453 21.663 65.5786 12.7247 83.1594 18.8074C92.9233 22.1867 100.144 29.4972 103.636 38.2975Z" fill="#DDBB66"/>
<path d="M99.411 38.8707C98.362 39.0052 97.3023 39.129 96.2353 39.2458C95.9228 39.2812 95.6067 39.3166 95.2906 39.3484C94.3027 39.4546 93.304 39.5536 92.2982 39.6456C91.8168 39.6916 91.3318 39.7341 90.8469 39.773C90.6457 39.7943 90.4409 39.8084 90.2398 39.8261C89.5536 39.8863 88.8675 39.9393 88.1778 39.9924C87.4845 40.0419 86.7911 40.0915 86.0942 40.134C85.5626 40.1693 85.0273 40.2012 84.492 40.233C82.5953 40.3463 80.677 40.4347 78.7371 40.502C78.3887 40.5126 78.0402 40.5232 77.6882 40.5373C77.0092 40.5586 76.3267 40.5763 75.6442 40.5904C73.7833 40.6293 71.9046 40.6506 70.0114 40.6506C69.3109 40.6506 68.6104 40.647 67.9171 40.6435C64.9175 40.6187 61.9574 40.5409 59.0476 40.4135C56.8994 40.3179 54.7764 40.1976 52.6856 40.0526C51.1876 39.9464 49.704 39.8261 48.2383 39.6952C46.8445 39.5713 45.4687 39.4333 44.1072 39.2847C50.1243 24.837 66.6526 17.4132 81.787 22.6467C90.0314 25.4987 96.2138 31.5389 99.411 38.8707Z" fill="#DDBB66" stroke="#635128" stroke-width="0.73549" stroke-miterlimit="10"/>
<path d="M95.2904 39.3485C94.3025 39.4546 93.3038 39.5537 92.298 39.6457C91.8166 39.6917 91.3316 39.7341 90.8467 39.7731C90.6455 39.7943 90.4407 39.8084 90.2396 39.8261C89.5534 39.8863 88.8673 39.9394 88.1776 39.9925C87.4843 40.042 86.791 40.0915 86.094 40.134C85.5624 40.1694 85.0271 40.2012 84.4919 40.2331C82.5951 40.3463 80.6768 40.4348 78.737 40.502C78.3885 40.5126 78.0401 40.5232 77.688 40.5374C77.0091 40.5586 76.3265 40.5763 75.644 40.5905C73.7832 40.6294 71.9044 40.6506 70.0112 40.6506C69.3107 40.6506 68.6102 40.6471 67.9169 40.6435C64.9173 40.6188 61.9572 40.5409 59.0475 40.4135C56.8992 40.318 54.7762 40.1977 52.6854 40.0526C51.1875 39.9465 49.7038 39.8261 48.2382 39.6952C53.817 27.8554 67.7193 21.9036 80.4792 26.3197C87.2364 28.6586 92.3986 33.4639 95.2904 39.3485Z" fill="#DDBB66" stroke="#635128" stroke-width="0.73549" stroke-miterlimit="10"/>
<path d="M90.8468 39.7731C90.6456 39.7943 90.4408 39.8084 90.2397 39.8261C89.5535 39.8863 88.8674 39.9394 88.1777 39.9924C87.4844 40.042 86.791 40.0915 86.0941 40.134C85.5625 40.1694 85.0272 40.2012 84.492 40.2331C82.5952 40.3463 80.6769 40.4348 78.7371 40.502C78.3886 40.5126 78.0402 40.5232 77.6881 40.5374C77.0092 40.5586 76.3266 40.5763 75.6441 40.5905C73.7833 40.6294 71.9045 40.6506 70.0113 40.6506C69.3108 40.6506 68.6103 40.6471 67.917 40.6435C64.9174 40.6188 61.9573 40.5409 59.0476 40.4135C56.8993 40.318 54.7763 40.1977 52.6855 40.0526C57.7651 31.0047 68.8726 26.6205 79.1107 30.159C84.2692 31.9459 88.325 35.4384 90.8468 39.7731Z" fill="#DDBB66" stroke="#635128" stroke-width="0.73549" stroke-miterlimit="10"/>
<path d="M84.4921 40.2331C82.5954 40.3464 80.6771 40.4348 78.7372 40.5021C78.3888 40.5127 78.0403 40.5233 77.6883 40.5374C77.0093 40.5587 76.3268 40.5764 75.6443 40.5905C73.7834 40.6294 71.9046 40.6507 70.0115 40.6507C69.311 40.6507 68.6105 40.6471 67.9172 40.6436C64.9176 40.6188 61.9575 40.541 59.0477 40.4136C63.2759 35.212 70.536 32.9438 77.2859 35.2792C80.2101 36.2912 82.6565 38.0357 84.4921 40.2331Z" fill="#DDBB66" stroke="#635128" stroke-width="0.73549" stroke-miterlimit="10"/>
<path d="M79.6965 57.1082C79.1577 57.0905 78.6224 57.0692 78.0872 57.0445C76.9197 56.9914 75.7629 56.9348 74.6098 56.864C73.6435 56.8109 72.6807 56.7508 71.7252 56.6835C71.0247 56.634 70.3277 56.5809 69.6344 56.5243C68.8441 56.4642 68.0574 56.3969 67.2779 56.3262C66.2576 56.2342 65.2446 56.1386 64.2424 56.0325C63.8759 55.9935 63.5095 55.9546 63.1467 55.9157C61.717 55.76 60.3052 55.5937 58.9114 55.4132C58.0312 55.3 57.1583 55.1832 56.2925 55.0594C46.7693 53.7041 38.1729 51.7756 30.902 49.4049C28.2832 48.5485 25.8368 47.6391 23.5809 46.6802C21.8961 45.9619 20.319 45.2153 18.857 44.4403C17.3662 43.6548 15.9939 42.8409 14.7509 42.0058C13.3032 41.0327 12.0244 40.0278 10.9287 38.991C24.3173 24.7733 46.6256 22.0062 63.3155 33.3436C71.9407 39.2033 77.5268 47.7877 79.7001 57.1082H79.6965Z" fill="#FEEBB4"/>
<path d="M74.6098 56.864C73.6435 56.8109 72.6808 56.7508 71.7252 56.6836C71.0247 56.634 70.3278 56.581 69.6345 56.5243C68.8442 56.4642 68.0574 56.397 67.2779 56.3262C66.2577 56.2342 65.2446 56.1386 64.2424 56.0325C63.876 55.9936 63.5096 55.9546 63.1467 55.9157C61.717 55.76 60.3052 55.5937 58.9114 55.4132C58.0313 55.3 57.1583 55.1832 56.2926 55.0594C46.7693 53.7042 38.1729 51.7757 30.9021 49.4049C28.2833 48.5486 25.8369 47.6392 23.5809 46.6802C21.8961 45.9619 20.3191 45.2153 18.857 44.4404C17.3662 43.6548 15.9939 42.8409 14.751 42.0059C26.5374 29.7308 45.9718 27.406 60.5423 37.2997C67.7162 42.1722 72.4975 49.1819 74.6134 56.864H74.6098Z" fill="#FEEBB4" stroke="#635128" stroke-width="0.73549" stroke-miterlimit="10"/>
<path d="M69.6343 56.5243C68.844 56.4641 68.0572 56.3969 67.2777 56.3261C66.2575 56.2341 65.2444 56.1386 64.2422 56.0324C63.8758 55.9935 63.5094 55.9546 63.1465 55.9157C61.7168 55.76 60.305 55.5937 58.9112 55.4132C58.0311 55.3 57.1581 55.1832 56.2924 55.0593C46.7691 53.7041 38.1727 51.7756 30.9019 49.4048C28.2831 48.5485 25.8367 47.6391 23.5807 46.6802C21.8959 45.9619 20.3189 45.2152 18.8568 44.4403C29.156 34.4193 45.5442 32.6889 57.8946 41.0823C63.6351 44.9852 67.6118 50.4664 69.6343 56.5243Z" fill="#FEEBB4" stroke="#635128" stroke-width="0.73549" stroke-miterlimit="10"/>
<path d="M64.2423 56.0325C63.8759 55.9936 63.5095 55.9546 63.1466 55.9157C61.7169 55.76 60.3051 55.5937 58.9113 55.4132C58.0312 55.3 57.1582 55.1832 56.2925 55.0594C46.7692 53.7041 38.1728 51.7757 30.902 49.4049C28.2832 48.5486 25.8368 47.6392 23.5808 46.6802C32.2742 39.3095 45.2353 38.3223 55.125 45.0384C59.3136 47.8868 62.3887 51.7332 64.2423 56.0325Z" fill="#FEEBB4" stroke="#635128" stroke-width="0.73549" stroke-miterlimit="10"/>
<path d="M56.2925 55.0593C46.7693 53.7041 38.1728 51.7756 30.902 49.4048C37.1454 45.93 45.1276 46.0291 51.4321 50.3142C53.3863 51.6376 55.01 53.2547 56.2925 55.0593Z" fill="#FEEBB4" stroke="#635128" stroke-width="0.73549" stroke-miterlimit="10"/>
<path d="M94.6839 57.2214C92.8231 57.2603 90.9443 57.2815 89.0511 57.2815C88.3506 57.2815 87.6501 57.278 86.9568 57.2745C89.2774 56.3757 91.9214 56.2624 94.4611 57.14C94.5366 57.1648 94.612 57.1931 94.6839 57.2214Z" fill="#FEEBB4"/>
<path d="M73.7679 46.711C78.2227 38.9773 72.3917 27.4307 60.744 20.921C49.0964 14.4113 36.0428 15.4036 31.588 23.1373C27.1333 30.871 32.9643 42.4176 44.6119 48.9274C56.2595 55.4371 69.3131 54.4448 73.7679 46.711Z" fill="#FFFFF1"/>
<path d="M52.6786 43.4212C57.4401 43.4212 61.3001 39.619 61.3001 34.9288C61.3001 30.2385 57.4401 26.4364 52.6786 26.4364C47.917 26.4364 44.057 30.2385 44.057 34.9288C44.057 39.619 47.917 43.4212 52.6786 43.4212Z" fill="#F46437"/>
<path d="M48.1413 39.2104C49.2325 39.2104 50.1171 38.3391 50.1171 37.2642C50.1171 36.1894 49.2325 35.318 48.1413 35.318C47.0501 35.318 46.1655 36.1894 46.1655 37.2642C46.1655 38.3391 47.0501 39.2104 48.1413 39.2104Z" fill="#FFF2EE"/>
<path d="M47.4519 32.9013C47.7752 31.3125 48.7811 29.8723 50.3401 29.0337C53.1278 27.5369 56.6195 28.5489 58.1391 31.2948C58.8324 32.5474 58.994 33.9486 58.7031 35.2402" fill="#F46437"/>
<path d="M47.4519 32.9013C47.7752 31.3125 48.7811 29.8723 50.3401 29.0337C53.1278 27.5369 56.6195 28.5489 58.1391 31.2948C58.8324 32.5474 58.994 33.9486 58.7031 35.2402" stroke="white" stroke-width="2.20647" stroke-miterlimit="10" stroke-linecap="round"/>
<path d="M148.306 26.8327C147.3 27.912 146.082 28.9311 144.663 29.8935C143.514 30.672 142.239 31.408 140.834 32.1086C139.534 32.7562 138.125 33.3683 136.62 33.9451C134.813 34.6351 132.863 35.2756 130.779 35.8559C128.818 36.4044 126.745 36.9068 124.557 37.3527C118.026 38.7009 110.536 39.5926 102.335 39.9889C100.237 40.088 98.089 40.1587 95.9012 40.1906C93.8752 40.2295 91.8096 40.2295 89.7117 40.2083C88.1885 40.1906 86.651 40.1552 85.0956 40.1056C83.6407 40.0632 82.1714 40.0066 80.6878 39.9287C79.9262 39.8933 79.1574 39.8509 78.3887 39.8049C77.6235 39.7624 76.8584 39.7164 76.0896 39.6669C76.1507 38.9698 76.2333 38.2727 76.3339 37.5756C79.3299 17.1054 98.6099 2.89832 119.395 5.85297C132.467 7.71068 143.022 15.9129 148.306 26.8363V26.8327Z" fill="#FEEBB4"/>
<path d="M144.664 29.8935C143.514 30.672 142.239 31.408 140.834 32.1086C139.534 32.7561 138.125 33.3683 136.62 33.9451C134.813 34.6351 132.863 35.2756 130.779 35.8559C128.818 36.4043 126.745 36.9068 124.557 37.3527C118.026 38.7008 110.536 39.5925 102.335 39.9888C100.237 40.0879 98.0891 40.1587 95.9013 40.1905C93.8753 40.2295 91.8097 40.2295 89.7118 40.2082C88.1886 40.1905 86.6511 40.1552 85.0957 40.1056C83.6408 40.0632 82.1715 40.0065 80.6879 39.9287C80.7382 39.3625 80.8064 38.7893 80.889 38.2196C83.5222 20.2263 100.467 7.73895 118.738 10.3362C130.664 12.0312 140.209 19.7345 144.664 29.89V29.8935Z" fill="#FEEBB4" stroke="#635128" stroke-width="0.73549" stroke-miterlimit="10"/>
<path d="M140.834 32.1086C139.534 32.7562 138.126 33.3683 136.62 33.9451C134.813 34.6351 132.863 35.2756 130.779 35.8559C128.818 36.4044 126.745 36.9068 124.557 37.3527C118.027 38.7008 110.537 39.5925 102.335 39.9889C100.237 40.0879 98.0891 40.1587 95.9014 40.1905C93.8753 40.2295 91.8097 40.2295 89.7118 40.2082C88.1887 40.1906 86.6512 40.1552 85.0957 40.1056C85.1316 39.6845 85.1855 39.2635 85.2502 38.8424C87.5385 23.2199 102.249 12.3779 118.113 14.632C128.667 16.1323 137.066 23.0465 140.834 32.1122V32.1086Z" fill="#FEEBB4" stroke="#635128" stroke-width="0.73549" stroke-miterlimit="10"/>
<path d="M136.62 33.9451C134.814 34.6351 132.863 35.2756 130.779 35.8559C128.818 36.4044 126.745 36.9068 124.557 37.3527C118.027 38.7009 110.537 39.5926 102.335 39.9889C100.237 40.0879 98.0892 40.1587 95.9015 40.1906C93.8754 40.2295 91.8098 40.2295 89.7119 40.2083C89.7371 39.9676 89.7694 39.727 89.8053 39.4899C91.7308 26.3444 104.11 17.2257 117.455 19.1188C126.379 20.3856 133.477 26.263 136.62 33.9451Z" fill="#FEEBB4" stroke="#635128" stroke-width="0.73549" stroke-miterlimit="10"/>
<path d="M130.779 35.856C128.818 36.4045 126.745 36.9069 124.557 37.3528C118.026 38.701 110.536 39.5927 102.335 39.989C100.237 40.0881 98.0891 40.1588 95.9014 40.1907C97.4173 30.435 106.642 23.6906 116.579 25.1025C123.128 26.0331 128.358 30.2722 130.779 35.856Z" fill="#FEEBB4" stroke="#635128" stroke-width="0.73549" stroke-miterlimit="10"/>
<path d="M124.557 37.3527C118.026 38.7009 110.536 39.5926 102.335 39.9889C103.829 34.2034 109.545 30.3429 115.68 31.2134C119.614 31.7725 122.822 34.1468 124.557 37.3527Z" fill="#FEEBB4" stroke="#635128" stroke-width="0.73549" stroke-miterlimit="10"/>
<path d="M122.675 54.9284C121.594 55.0877 120.498 55.2398 119.388 55.3849C119.076 55.4274 118.763 55.4663 118.451 55.5017C117.402 55.6361 116.342 55.76 115.275 55.8768C114.962 55.9121 114.646 55.9475 114.33 55.9794C113.342 56.0855 112.344 56.1846 111.338 56.2766C110.856 56.3226 110.371 56.3651 109.887 56.404C109.685 56.4252 109.481 56.4394 109.279 56.4571C108.593 56.5172 107.907 56.5703 107.217 56.6234C106.524 56.6729 105.831 56.7225 105.134 56.7649C104.602 56.8003 104.067 56.8321 103.532 56.864C101.635 56.9772 99.7167 57.0657 97.7768 57.1329C97.4284 57.1435 97.0799 57.1542 96.7279 57.1683C96.0489 57.1895 95.3664 57.2072 94.6838 57.2214C92.823 57.2603 90.9442 57.2815 89.0511 57.2815C88.3506 57.2815 87.6501 57.278 86.9568 57.2745C83.9572 57.2497 80.9971 57.1718 78.0873 57.0445C75.9391 56.9489 73.816 56.8286 71.7253 56.6835C70.2273 56.5774 68.7437 56.4571 67.278 56.3261C65.8842 56.2023 64.5083 56.0643 63.1468 55.9157C61.7171 55.76 60.3053 55.5937 58.9115 55.4132C65.3849 38.2939 84.6181 29.3557 102.199 35.4384C111.963 38.8176 119.183 46.1282 122.675 54.9284Z" fill="#FEEBB4"/>
<path d="M118.451 55.5017C117.402 55.6362 116.342 55.76 115.275 55.8768C114.962 55.9122 114.646 55.9476 114.33 55.9794C113.342 56.0856 112.344 56.1847 111.338 56.2767C110.856 56.3227 110.371 56.3651 109.887 56.404C109.685 56.4253 109.481 56.4394 109.279 56.4571C108.593 56.5173 107.907 56.5703 107.217 56.6234C106.524 56.673 105.831 56.7225 105.134 56.765C104.602 56.8004 104.067 56.8322 103.532 56.864C101.635 56.9773 99.7167 57.0657 97.7768 57.133C97.4284 57.1436 97.0799 57.1542 96.7279 57.1684C96.0489 57.1896 95.3664 57.2073 94.6838 57.2214C92.823 57.2604 90.9442 57.2816 89.0511 57.2816C88.3506 57.2816 87.6501 57.2781 86.9568 57.2745C83.9572 57.2498 80.9971 57.1719 78.0873 57.0445C75.9391 56.949 73.816 56.8287 71.7253 56.6836C70.2273 56.5774 68.7437 56.4571 67.278 56.3262C65.8842 56.2024 64.5083 56.0643 63.1469 55.9157C69.164 41.468 85.6923 34.0443 100.827 39.2777C109.071 42.1297 115.253 48.17 118.451 55.5017Z" fill="#FEEBB4" stroke="#635128" stroke-width="0.73549" stroke-miterlimit="10"/>
<path d="M114.33 55.9794C113.342 56.0855 112.344 56.1846 111.338 56.2766C110.856 56.3226 110.371 56.3651 109.886 56.404C109.685 56.4252 109.481 56.4394 109.279 56.4571C108.593 56.5172 107.907 56.5703 107.217 56.6234C106.524 56.6729 105.831 56.7225 105.134 56.7649C104.602 56.8003 104.067 56.8321 103.532 56.864C101.635 56.9772 99.7166 57.0657 97.7768 57.1329C97.4283 57.1435 97.0798 57.1542 96.7278 57.1683C96.0489 57.1895 95.3663 57.2072 94.6838 57.2214C92.823 57.2603 90.9442 57.2815 89.051 57.2815C88.3505 57.2815 87.65 57.278 86.9567 57.2745C83.9571 57.2497 80.997 57.1718 78.0872 57.0445C75.939 56.9489 73.816 56.8286 71.7252 56.6835C70.2272 56.5774 68.7436 56.4571 67.278 56.3261C72.8568 44.4863 86.7591 38.5346 99.519 42.9506C106.276 45.2896 111.438 50.0948 114.33 55.9794Z" fill="#FEEBB4" stroke="#635128" stroke-width="0.73549" stroke-miterlimit="10"/>
<path d="M109.886 56.404C109.685 56.4252 109.481 56.4394 109.279 56.4571C108.593 56.5172 107.907 56.5703 107.217 56.6234C106.524 56.6729 105.831 56.7225 105.134 56.7649C104.602 56.8003 104.067 56.8321 103.532 56.864C101.635 56.9772 99.7166 57.0657 97.7767 57.1329C97.4283 57.1435 97.0798 57.1542 96.7278 57.1683C96.0488 57.1895 95.3663 57.2072 94.6838 57.2214C92.8229 57.2603 90.9441 57.2815 89.051 57.2815C88.3505 57.2815 87.65 57.278 86.9567 57.2745C83.9571 57.2497 80.997 57.1718 78.0872 57.0444C75.939 56.9489 73.816 56.8286 71.7252 56.6835C76.8048 47.6356 87.9122 43.2514 98.1503 46.7899C103.309 48.5768 107.365 52.0693 109.886 56.404Z" fill="#FEEBB4" stroke="#635128" stroke-width="0.73549" stroke-miterlimit="10"/>
<path d="M103.532 56.864C101.635 56.9772 99.7166 57.0656 97.7768 57.1329C97.4283 57.1435 97.0799 57.1541 96.7278 57.1683C96.0489 57.1895 95.3663 57.2072 94.6838 57.2213C92.823 57.2603 90.9442 57.2815 89.051 57.2815C88.3505 57.2815 87.65 57.278 86.9567 57.2744C83.9571 57.2497 80.9971 57.1718 78.0873 57.0444C82.3154 51.8428 89.5755 49.5746 96.3255 51.91C99.2496 52.9221 101.696 54.6665 103.532 56.864Z" fill="#FEEBB4" stroke="#635128" stroke-width="0.73549" stroke-miterlimit="10"/>
<path d="M128.115 46.8455C139.492 39.8865 144.854 28.1214 140.092 20.5676C135.329 13.0137 122.246 12.5315 110.869 19.4905C99.4927 26.4496 94.1306 38.2146 98.8928 45.7685C103.655 53.3223 116.738 53.8045 128.115 46.8455Z" fill="#FFFFF1"/>
<path d="M119.496 41.652C124.257 41.652 128.117 37.8498 128.117 33.1596C128.117 28.4693 124.257 24.6672 119.496 24.6672C114.734 24.6672 110.874 28.4693 110.874 33.1596C110.874 37.8498 114.734 41.652 119.496 41.652Z" fill="#F46437"/>
<path d="M119.586 30.0634C120.677 30.0634 121.561 29.1921 121.561 28.1172C121.561 27.0424 120.677 26.1711 119.586 26.1711C118.494 26.1711 117.61 27.0424 117.61 28.1172C117.61 29.1921 118.494 30.0634 119.586 30.0634Z" fill="#FFF2EE"/>
<path d="M123.807 29.6105C125.067 30.6473 125.872 32.2113 125.872 33.9558C125.872 37.0838 123.3 39.6174 120.124 39.6174C118.673 39.6174 117.351 39.0901 116.338 38.2161" fill="#F46437"/>
<path d="M123.807 29.6105C125.067 30.6473 125.872 32.2113 125.872 33.9558C125.872 37.0838 123.3 39.6174 120.124 39.6174C118.673 39.6174 117.351 39.0901 116.338 38.2161" stroke="white" stroke-width="2.20647" stroke-miterlimit="10" stroke-linecap="round"/>
<path d="M169.702 36.1107C168.948 37.197 167.999 38.255 166.864 39.2883C165.944 40.1234 164.906 40.9408 163.75 41.7405C162.679 42.48 161.508 43.2019 160.243 43.9025C158.728 44.7447 157.079 45.5585 155.304 46.337C153.634 47.073 151.855 47.7807 149.973 48.453C144.347 50.4735 137.809 52.2109 130.574 53.598C128.724 53.9518 126.824 54.2845 124.884 54.5888C123.088 54.8789 121.256 55.1408 119.388 55.3849C118.034 55.5618 116.661 55.7246 115.275 55.8768C113.978 56.0219 112.663 56.1563 111.338 56.2766C110.655 56.3403 109.969 56.4005 109.279 56.4571C108.593 56.5173 107.907 56.5703 107.217 56.6234C107.181 55.9971 107.163 55.3672 107.163 54.7339C107.163 36.1709 122.441 21.1181 141.29 21.1181C153.145 21.1181 163.588 27.0734 169.702 36.1107Z" fill="#FEEBB4"/>
<path d="M166.864 39.2883C165.945 40.1233 164.906 40.9407 163.75 41.7404C162.679 42.48 161.508 43.2018 160.244 43.9025C158.728 44.7446 157.079 45.5585 155.304 46.337C153.634 47.073 151.856 47.7807 149.973 48.453C144.348 50.4735 137.81 52.2109 130.575 53.598C128.725 53.9518 126.824 54.2844 124.884 54.5887C123.088 54.8789 121.256 55.1407 119.388 55.3849C118.034 55.5618 116.662 55.7246 115.275 55.8767C113.978 56.0218 112.663 56.1563 111.338 56.2766C111.309 55.7671 111.295 55.2504 111.295 54.7338C111.295 38.4178 124.723 25.1873 141.291 25.1873C152.107 25.1873 161.587 30.8277 166.864 39.2883Z" fill="#FEEBB4" stroke="#635128" stroke-width="0.73549" stroke-miterlimit="10"/>
<path d="M163.75 41.7404C162.679 42.4799 161.508 43.2018 160.244 43.9024C158.728 44.7446 157.079 45.5584 155.304 46.3369C153.634 47.0729 151.856 47.7806 149.973 48.4529C144.348 50.4734 137.81 52.2108 130.575 53.5979C128.725 53.9518 126.824 54.2844 124.885 54.5887C123.088 54.8788 121.256 55.1407 119.388 55.3848C118.034 55.5618 116.662 55.7245 115.275 55.8767C115.254 55.4981 115.246 55.1159 115.246 54.7338C115.246 40.5656 126.907 29.0796 141.291 29.0796C150.861 29.0796 159.224 34.1645 163.75 41.7404Z" fill="#FEEBB4" stroke="#635128" stroke-width="0.73549" stroke-miterlimit="10"/>
<path d="M160.243 43.9024C158.727 44.7446 157.079 45.5584 155.304 46.3369C153.634 47.0729 151.855 47.7806 149.973 48.4529C144.347 50.4734 137.809 52.2108 130.574 53.5979C128.724 53.9517 126.824 54.2843 124.884 54.5887C123.088 54.8788 121.256 55.1407 119.388 55.3848C119.381 55.169 119.377 54.9496 119.377 54.7337C119.377 42.8125 129.188 33.1489 141.29 33.1489C149.384 33.1489 156.454 37.4729 160.243 43.9024Z" fill="#FEEBB4" stroke="#635128" stroke-width="0.73549" stroke-miterlimit="10"/>
<path d="M155.304 46.3369C153.634 47.0729 151.856 47.7806 149.973 48.4529C144.348 50.4734 137.81 52.2108 130.575 53.5979C128.725 53.9518 126.824 54.2844 124.885 54.5887C124.964 45.7318 132.281 38.577 141.291 38.577C147.229 38.577 152.427 41.6838 155.304 46.3369Z" fill="#FEEBB4" stroke="#635128" stroke-width="0.73549" stroke-miterlimit="10"/>
<path d="M149.973 48.4529C144.347 50.4734 137.809 52.2108 130.574 53.5979C131.149 48.2689 135.726 44.1183 141.29 44.1183C144.857 44.1183 148.015 45.8238 149.973 48.4529Z" fill="#FEEBB4" stroke="#635128" stroke-width="0.73549" stroke-miterlimit="10"/>
<path d="M27.0832 37.4942C30.6544 37.4942 33.5494 34.6426 33.5494 31.1249C33.5494 27.6073 30.6544 24.7556 27.0832 24.7556C23.5121 24.7556 20.6171 27.6073 20.6171 31.1249C20.6171 34.6426 23.5121 37.4942 27.0832 37.4942Z" fill="#559A56"/>
<path d="M25.467 34.6634C27.9469 34.6634 29.9574 32.6831 29.9574 30.2403C29.9574 27.7975 27.9469 25.8172 25.467 25.8172C22.987 25.8172 20.9766 27.7975 20.9766 30.2403C20.9766 32.6831 22.987 34.6634 25.467 34.6634Z" fill="#96BC50"/>
<path d="M24.5686 32.5403C26.0566 32.5403 27.2629 31.3522 27.2629 29.8865C27.2629 28.4208 26.0566 27.2326 24.5686 27.2326C23.0806 27.2326 21.8744 28.4208 21.8744 29.8865C21.8744 31.3522 23.0806 32.5403 24.5686 32.5403Z" fill="#D5E164"/>
<path d="M96.1601 57.0869C95.8116 57.1046 95.4632 57.1223 95.1111 57.14C94.9064 56.5243 94.7986 55.8697 94.7986 55.1867C94.7986 51.6695 97.694 48.8174 101.265 48.8174C104.836 48.8174 107.731 51.6695 107.731 55.1867C107.731 55.4946 107.709 55.7989 107.663 56.0926C106.294 56.2624 104.911 56.4146 103.517 56.5455L96.1601 57.0869Z" fill="#559A56"/>
<path d="M103.517 56.5454C103.912 55.8873 104.139 55.1194 104.139 54.302C104.139 51.8604 102.127 49.8789 99.6482 49.8789C97.1695 49.8789 95.1578 51.8604 95.1578 54.302C95.1578 55.3565 95.535 56.3296 96.1601 57.0868L103.517 56.5454Z" fill="#96BC50"/>
<path d="M98.7503 56.602C100.238 56.602 101.445 55.4138 101.445 53.9482C101.445 52.4825 100.238 51.2943 98.7503 51.2943C97.2623 51.2943 96.056 52.4825 96.056 53.9482C96.056 55.4138 97.2623 56.602 98.7503 56.602Z" fill="#D5E164"/>
<path d="M72.3467 28.648C75.9178 28.648 78.8128 25.7964 78.8128 22.2787C78.8128 18.761 75.9178 15.9094 72.3467 15.9094C68.7755 15.9094 65.8805 18.761 65.8805 22.2787C65.8805 25.7964 68.7755 28.648 72.3467 28.648Z" fill="#559A56"/>
<path d="M70.7301 25.8172C73.2101 25.8172 75.2205 23.8369 75.2205 21.394C75.2205 18.9512 73.2101 16.9709 70.7301 16.9709C68.2502 16.9709 66.2397 18.9512 66.2397 21.394C66.2397 23.8369 68.2502 25.8172 70.7301 25.8172Z" fill="#96BC50"/>
<path d="M69.8318 23.6941C71.3198 23.6941 72.5261 22.5059 72.5261 21.0402C72.5261 19.5745 71.3198 18.3863 69.8318 18.3863C68.3438 18.3863 67.1376 19.5745 67.1376 21.0402C67.1376 22.5059 68.3438 23.6941 69.8318 23.6941Z" fill="#D5E164"/>
</svg>
