<svg width="28" height="28" viewBox="0 0 28 28" fill="none" xmlns="http://www.w3.org/2000/svg">
<path d="M13.5997 6.51783L14 7.05296L14.4004 6.51783C15.4888 5.06304 17.2333 4.11664 19.18 4.11664C22.4832 4.11664 25.1667 6.80711 25.1667 10.1383C25.1667 11.4723 24.9539 12.7037 24.5843 13.8461L24.5833 13.8493C23.6974 16.6527 21.8831 18.9092 19.9289 20.5887C17.9725 22.2701 15.9046 23.3482 14.5623 23.805L14.5623 23.8049L14.557 23.8068C14.4288 23.852 14.2268 23.8833 14 23.8833C13.7733 23.8833 13.5713 23.852 13.4431 23.8068L13.4431 23.8068L13.4378 23.805C12.0955 23.3482 10.0275 22.2701 8.07114 20.5887C6.11695 18.9092 4.30267 16.6527 3.4168 13.8493L3.41681 13.8493L3.41576 13.8461C3.04618 12.7037 2.83337 11.4723 2.83337 10.1383C2.83337 6.80711 5.51685 4.11664 8.82004 4.11664C10.7668 4.11664 12.5113 5.06304 13.5997 6.51783Z" fill="#5E5D5C" stroke="#5E5D5C"/>
</svg>
