<svg width="28" height="28" viewBox="0 0 28 28" fill="none" xmlns="http://www.w3.org/2000/svg">
<path d="M11.6644 3.61014L11.6648 3.60984C12.9607 2.56903 15.0342 2.57579 16.348 3.62238C16.3481 3.62249 16.3483 3.62259 16.3484 3.6227L23.9857 9.73254C23.9863 9.73301 23.9869 9.73348 23.9875 9.73394C24.4413 10.1046 24.8301 10.6807 25.08 11.3347C25.3298 11.9884 25.4246 12.6773 25.3363 13.2559L23.8674 22.0461C23.8673 22.0466 23.8672 22.0471 23.8671 22.0476C23.5691 23.7588 21.9082 25.1667 20.1833 25.1667H7.81666C6.06719 25.1667 4.44254 23.7926 4.14464 22.0598C4.14458 22.0595 4.14452 22.0591 4.14446 22.0588L2.67483 13.2643L2.67463 13.2631C2.57582 12.6801 2.66497 11.9896 2.91426 11.3359C3.16354 10.6822 3.55719 10.1066 4.02184 9.73584L4.02271 9.73515L11.6644 3.61014ZM14 22.375C14.7545 22.375 15.375 21.7545 15.375 21V17.5C15.375 16.7455 14.7545 16.125 14 16.125C13.2455 16.125 12.625 16.7455 12.625 17.5V21C12.625 21.7545 13.2455 22.375 14 22.375Z" fill="#FAF7F5" stroke="#FAF7F5"/>
</svg>
