<svg width="28" height="28" viewBox="0 0 28 28" fill="none" xmlns="http://www.w3.org/2000/svg">
<path d="M6.61511 22.3787C6.61053 22.3751 6.60606 22.3716 6.60171 22.3681V22.3446L6.44108 22.1961C4.2277 20.1504 2.83337 17.2362 2.83337 14C2.83337 7.84779 7.84785 2.83331 14 2.83331C20.1522 2.83331 25.1667 7.84779 25.1667 14C25.1667 17.236 23.7725 20.1498 21.5483 22.1953L21.1746 22.5389C21.1165 22.5842 21.0606 22.6335 21.029 22.6613C21.0187 22.6704 21.0109 22.6773 21.0066 22.6809C20.8116 22.8434 20.6024 22.9978 20.375 23.157L20.375 23.157L20.3711 23.1598C20.321 23.1955 20.2889 23.2198 20.2646 23.238C20.23 23.2641 20.2115 23.278 20.1803 23.2959L20.1679 23.303L20.1559 23.3108C20.0099 23.4057 19.8723 23.4858 19.7237 23.5725C19.645 23.6184 19.5631 23.6661 19.4753 23.7187C19.4359 23.7414 19.3948 23.7672 19.3635 23.7868C19.3551 23.792 19.3475 23.7968 19.3407 23.801C19.3016 23.8253 19.2736 23.8417 19.2481 23.8544L19.2481 23.8544L19.2397 23.8587C19.0057 23.9813 18.7724 24.0924 18.5397 24.1921L18.5262 24.1979L18.5131 24.2044C18.415 24.2535 18.3455 24.2877 18.2811 24.3118L18.2703 24.3159L18.2597 24.3204C18.1124 24.3835 17.9689 24.4327 17.8075 24.488C17.7237 24.5167 17.635 24.5471 17.5384 24.5819C17.4269 24.6117 17.3213 24.6513 17.2406 24.6816L17.237 24.683C17.0669 24.7417 16.8942 24.7826 16.6966 24.8293C16.6248 24.8463 16.5497 24.8641 16.4702 24.8837C16.3995 24.895 16.3392 24.9116 16.3029 24.9216L16.301 24.9221C16.2764 24.9289 16.2638 24.9325 16.2512 24.9356C16.2423 24.9378 16.2387 24.9384 16.2387 24.9384L16.2222 24.9408L16.2053 24.9444C15.9009 25.0096 15.5929 25.0539 15.2669 25.0876L15.2316 25.0913L15.1971 25.0999L15.1693 25.1067C15.1665 25.1074 15.1642 25.1079 15.1624 25.1083H15.1557L15.1331 25.1104C14.7585 25.1444 14.3776 25.1666 14 25.1666C13.6351 25.1666 13.2668 25.1459 12.8926 25.1136C12.8484 25.1031 12.7795 25.0891 12.703 25.0857C12.3839 25.0522 12.0817 25.0084 11.7831 24.9444L11.7619 24.9399L11.7404 24.9372C11.6907 24.931 11.6441 24.9185 11.5591 24.8942L11.5511 24.8919L11.543 24.8899C11.2615 24.8195 10.9909 24.7518 10.7217 24.6733L10.7124 24.6706L10.703 24.6682C10.6421 24.653 10.5758 24.6288 10.4773 24.5918L10.4654 24.5874L10.4533 24.5835C10.2098 24.506 9.96567 24.4173 9.72103 24.3172L9.71419 24.3144L9.70727 24.3118C9.64288 24.2877 9.57339 24.2535 9.47532 24.2044L9.45846 24.196L9.44102 24.1889C9.20266 24.0914 8.97617 23.9835 8.76133 23.8656C8.72689 23.8458 8.68896 23.8231 8.64562 23.7971L8.64345 23.7958C8.60127 23.7705 8.55363 23.7419 8.5081 23.7159L8.50015 23.7113L8.49204 23.7071C8.26537 23.5883 8.05022 23.4593 7.84638 23.3201C7.80422 23.29 7.76521 23.263 7.72914 23.238L7.72798 23.2372C7.69073 23.2114 7.65652 23.1877 7.62018 23.1618C7.56505 23.1212 7.51123 23.082 7.45864 23.0437C7.28789 22.9194 7.13002 22.8044 6.9818 22.6809L6.96128 22.6638L6.93906 22.649C6.91703 22.6343 6.90746 22.6256 6.88646 22.6067C6.86824 22.5902 6.84142 22.566 6.79042 22.5233C6.73064 22.4701 6.66619 22.4191 6.61511 22.3787ZM19.4846 20.2134L19.4882 20.2158C19.9595 20.5264 20.3503 20.887 20.6532 21.2734L21.0036 21.7205L21.4026 21.3162C23.2637 19.4306 24.4167 16.8444 24.4167 14C24.4167 8.25217 19.7478 3.58331 14 3.58331C8.25223 3.58331 3.58337 8.25217 3.58337 14C3.58337 16.8444 4.73636 19.4306 6.59752 21.3162L6.98993 21.7138L7.34175 21.2799C7.66229 20.8846 8.04486 20.5236 8.51187 20.2158L8.51406 20.2143C10.0078 19.2185 11.997 18.7058 14.0088 18.7058C16.0207 18.7058 18.0033 19.2186 19.4846 20.2134Z" fill="#5E5D5C" stroke="#5E5D5C"/>
<path d="M10.125 12.46C10.125 10.3212 11.8611 8.58502 14 8.58502C16.1384 8.58502 17.8743 10.3205 17.875 12.4587C17.8641 14.5564 16.2257 16.2468 14.1428 16.3234H14.1427H14.1427H14.1426H14.1426H14.1425H14.1424H14.1424H14.1423H14.1423H14.1422H14.1422H14.1421H14.1421H14.142H14.1419H14.1419H14.1418H14.1418H14.1417H14.1417H14.1416H14.1415H14.1415H14.1414H14.1414H14.1413H14.1413H14.1412H14.1411H14.1411H14.141H14.141H14.1409H14.1408H14.1408H14.1407H14.1407H14.1406H14.1405H14.1405H14.1404H14.1404H14.1403H14.1403H14.1402H14.1401H14.1401H14.14H14.14H14.1399H14.1398H14.1398H14.1397H14.1396H14.1396H14.1395H14.1395H14.1394H14.1393H14.1393H14.1392H14.1392H14.1391H14.139H14.139H14.1389H14.1389H14.1388H14.1387H14.1387H14.1386H14.1385H14.1385H14.1384H14.1384H14.1383H14.1382H14.1382H14.1381H14.138H14.138H14.1379H14.1379H14.1378H14.1377H14.1377H14.1376H14.1375H14.1375H14.1374H14.1373H14.1373H14.1372H14.1372H14.1371H14.137H14.137H14.1369H14.1368H14.1368H14.1367H14.1366H14.1366H14.1365H14.1365H14.1364H14.1363H14.1363H14.1362H14.1361H14.1361H14.136H14.1359H14.1359H14.1358H14.1357H14.1357H14.1356H14.1355H14.1355H14.1354H14.1353H14.1353H14.1352H14.1351H14.1351H14.135H14.135H14.1349H14.1348H14.1348H14.1347H14.1346H14.1346H14.1345H14.1344H14.1344H14.1343H14.1342H14.1342H14.1341H14.134H14.134H14.1339H14.1338H14.1338H14.1337H14.1336H14.1336H14.1335H14.1334H14.1334H14.1333H14.1332H14.1332H14.1331H14.133H14.133H14.1329H14.1328H14.1328H14.1327H14.1326H14.1326H14.1325H14.1324H14.1323H14.1323H14.1322H14.1321H14.1321H14.132H14.1319H14.1319H14.1318H14.1317H14.1317H14.1316H14.1315H14.1315H14.1314H14.1313H14.1313H14.1312H14.1311H14.1311H14.131H14.1309H14.1309H14.1308H14.1307H14.1307H14.1306H14.1305H14.1304H14.1304H14.1303H14.1302H14.1302H14.1301H14.13H14.13H14.1299H14.1298H14.1298H14.1297H14.1296H14.1296H14.1295H14.1294H14.1294H14.1293H14.1292H14.1292H14.1291H14.129H14.1289H14.1289H14.1288H14.1287H14.1287H14.1286H14.1285H14.1285H14.1284H14.1283H14.1282H14.1281H14.1279H14.1278H14.1276H14.1275H14.1274H14.1272H14.1271H14.127H14.1268H14.1267H14.1265H14.1264H14.1263H14.1261H14.126H14.1258H14.1257H14.1255H14.1254H14.1253H14.1251H14.125H14.1248H14.1247H14.1245H14.1244H14.1243H14.1241H14.124H14.1238H14.1237H14.1235H14.1234H14.1232H14.1231H14.123H14.1228H14.1227H14.1225H14.1224H14.1222H14.1221H14.1219H14.1218H14.1216H14.1215H14.1213H14.1212H14.121H14.1209H14.1207H14.1206H14.1204H14.1203H14.1201H14.12H14.1198H14.1197H14.1195H14.1194H14.1192H14.1191H14.1189H14.1188H14.1186H14.1185H14.1183H14.1182H14.118H14.1179H14.1177H14.1176H14.1174H14.1172H14.1171H14.1169H14.1168H14.1166H14.1165H14.1163H14.1162H14.116H14.1159H14.1157H14.1155H14.1154H14.1152H14.1151H14.1149H14.1148H14.1146H14.1144H14.1143H14.1141H14.114H14.1138H14.1137H14.1135H14.1133H14.1132H14.113H14.1129H14.1127H14.1125H14.1124H14.1122H14.1121H14.1119H14.1117H14.1116H14.1114H14.1113H14.1111H14.1109H14.1108H14.1106H14.1105H14.1103H14.1101H14.11H14.1098H14.1097H14.1095H14.1093H14.1092H14.109H14.1088H14.1087H14.1085H14.1084H14.1082H14.108H14.1079H14.1077H14.1075H14.1074H14.1072H14.1071H14.1069H14.1067H14.1066H14.1064H14.1062H14.1061H14.1059H14.1057H14.1056H14.1054H14.1052H14.1051H14.1049H14.1047H14.1046H14.1044H14.1042H14.1041H14.1039H14.1038H14.1036H14.1034H14.1033H14.1031H14.1029H14.1028H14.1026H14.1024H14.1023H14.1021H14.1019H14.1018H14.1016H14.1014H14.1012H14.1011H14.1009H14.1007H14.1006H14.1004H14.1002H14.1001H14.0999H14.0997H14.0996H14.0994H14.0992H14.0991H14.0989H14.0987H14.0986H14.0984H14.0982H14.0981H14.0979H14.0977H14.0975H14.0974H14.0972H14.097H14.0969H14.0967H14.0965H14.0964H14.0962H14.096H14.0959H14.0957H14.0955H14.0953H14.0952H14.095H14.0948H14.0947H14.0945H14.0943H14.0942H14.094H14.0938H14.0936H14.0935H14.0933H14.0931H14.093H14.0928H14.0926H14.0925H14.0923H14.0921H14.0919H14.0918H14.0916H14.0914H14.0913H14.0911H14.0909H14.0907H14.0906H14.0904H14.0902H14.0901H14.0899H14.0897H14.0896H14.0894H14.0892H14.089H14.0889H14.0887H14.0885H14.0884H14.0882H14.088H14.0878H14.0877H14.0875H14.0873H14.0872H14.087H14.0868H14.0866H14.0865H14.0863H14.0861H14.086H14.0858H14.0856H14.0854H14.0853H14.0851H14.0849H14.0848H14.0846H14.0844H14.0843H14.0841H14.0839H14.0837H14.0836H14.0834H14.0832H14.0831H14.0829H14.0827H14.0825H14.0824H14.0822H14.082H14.0819H14.0817H14.0815H14.0814H14.0812H14.081H14.0808H14.0807H14.0805H14.0803H14.0802H14.08H14.0798H14.0797H14.0795H14.0793H14.0791H14.079H14.0788H14.0786H14.0785H14.0783H14.0781H14.078H14.0778H14.0776H14.0775H14.0773H14.0771H14.0769H14.0768H14.0766H14.0764H14.0763H14.0761H14.0759H14.0758H14.0756H14.0754H14.0753H14.0751H14.0749H14.0748H14.0746H14.0744H14.0743H14.0741H14.0739H14.0737H14.0736H14.0734H14.0732H14.0731H14.0729H14.0727H14.0726H14.0724H14.0722H14.0721H14.0719H14.0717H14.0716H14.0714H14.0712H14.0711H14.0709H14.0707H14.0706H14.0704H14.0703H14.0701H14.0699H14.0698H14.0696H14.0694H14.0693H14.0691H14.0689H14.0688H14.0686H14.0684H14.0683H14.0681H14.0679H14.0678H14.0676H14.0675H14.0673H14.0671H14.067H14.0668H14.0666H14.0665H14.0663H14.0662H14.066H14.0658H14.0657H14.0655H14.0653H14.0652H14.065H14.0649H14.0647H14.0645H14.0644H14.0642H14.0641H14.0639H14.0637H14.0636H14.0634H14.0632H14.0631H14.0629H14.0628H14.0626H14.0625H14.0623H14.0621H14.062H14.0618H14.0617H14.0615H14.0613H14.0612H14.061H14.0609H14.0607H14.0606H14.0604H14.0602H14.0601H14.0599H14.0598H14.0596H14.0595H14.0593H14.0591H14.059H14.0588H14.0587H14.0585H14.0584H14.0582H14.0581H14.0579H14.0578H14.0576H14.0574H14.0573H14.0571H14.057H14.0568H14.0567H14.0565H14.0564H14.0562H14.0561H14.0559H14.0558H14.0556H14.0555H14.0553H14.0552H14.055H14.0549H14.0547H14.0546H14.0544H14.0543H14.0541H14.054H14.0538H14.0537H14.0535H14.0534H14.0532H14.0531H14.0529H14.0528H14.0526H14.0525H14.0523H14.0522H14.052H14.0519H14.0518H14.0516H14.0515H14.0513H14.0512H14.051H14.0509H14.0507H14.0506H14.0505H14.0503H14.0502H14.05H14.0499H14.0497H14.0496H14.0495H14.0493H14.0492H14.049H14.0489H14.0487H14.0486H14.0485H14.0483H14.0482H14.048H14.0479H14.0478H14.0476H14.0475H14.0474H14.0472H14.0471H14.0469H14.0468H14.0467H14.0465H14.0464H14.0463H14.0461H14.046H14.0458H14.0457H14.0456H14.0454H14.0453H14.0451H14.045H14.0448H14.0447H14.0446H14.0444H14.0443H14.0441H14.044H14.0438H14.0437H14.0435H14.0434H14.0432H14.0431H14.0429H14.0428H14.0426H14.0425H14.0423H14.0422H14.042H14.0419H14.0417H14.0416H14.0414H14.0413H14.0411H14.0409H14.0408H14.0406H14.0405H14.0403H14.0402H14.04H14.0398H14.0397H14.0395H14.0394H14.0392H14.039H14.0389H14.0387H14.0385H14.0384H14.0382H14.0381H14.0379H14.0377H14.0376H14.0374H14.0372H14.0371H14.0369H14.0367H14.0366H14.0364H14.0362H14.036H14.0359H14.0357H14.0355H14.0354H14.0352H14.035H14.0348H14.0347H14.0345H14.0343H14.0342H14.034H14.0338H14.0336H14.0335H14.0333H14.0331H14.0329H14.0327H14.0326H14.0324H14.0322H14.032H14.0319H14.0317H14.0315H14.0313H14.0311H14.0309H14.0308H14.0306H14.0304H14.0302H14.03H14.0299H14.0297H14.0295H14.0293H14.0291H14.0289H14.0287H14.0286H14.0284H14.0282H14.028H14.0278H14.0276H14.0274H14.0272H14.0271H14.0269H14.0267H14.0265H14.0263H14.0261H14.0259H14.0257H14.0255H14.0253H14.0251H14.025H14.0248H14.0246H14.0244H14.0242H14.024H14.0238H14.0236H14.0234H14.0232H14.023H14.0228H14.0226H14.0224H14.0222H14.022H14.0218H14.0216H14.0214H14.0212H14.021H14.0208H14.0206H14.0204H14.0202H14.02H14.0198H14.0196H14.0194H14.0192H14.019H14.0188H14.0186H14.0184H14.0182H14.018H14.0178H14.0176H14.0174H14.0172H14.017H14.0168H14.0166H14.0164H14.0162H14.016H14.0158H14.0155H14.0153H14.0151H14.0149H14.0147H14.0145H14.0143H14.0141H14.0139H14.0137H14.0135H14.0133H14.013H14.0128H14.0126H14.0124H14.0122H14.012H14.0118H14.0116H14.0114H14.0112H14.0109H14.0107H14.0105H14.0103H14.0101H14.0099H14.0097H14.0095H14.0092H14.009H14.0088H14.0086H14.0084H14.0082H14.008H14.0077H14.0075H14.0073H14.0071H14.0069H14.0067H14.0064H14.0062H14.006H14.0058H14.0056H14.0054H14.0051H14.0049H14.0047H14.0045H14.0043H14.004H14.0038H14.0036H14.0034H14.0032H14.003H14.0027H14.0025H14.0023H14.0021H14.0019H14.0016H14.0014H14.0012H14.001H14.0008H14.0005H14.0003H14.0001H13.9999H13.9997H13.9994H13.9992H13.999H13.9988H13.9985H13.9983H13.9981H13.9979H13.9977H13.9974H13.9972H13.997H13.9968H13.9965H13.9963H13.9961H13.9959H13.9956H13.9954H13.9952H13.995H13.9947H13.9945H13.9943H13.9941H13.9938H13.9936H13.9934H13.9932H13.9929H13.9927H13.9925H13.9923H13.992H13.9918H13.9916H13.9914H13.9911H13.9909H13.9907H13.9905H13.9902H13.99H13.9898H13.9896H13.9893H13.9891H13.9889H13.9887H13.9884H13.9882H13.988H13.9878H13.9875H13.9873H13.9871H13.9868H13.9866H13.9864H13.9862H13.9859H13.9857H13.9855H13.9853H13.985H13.9848H13.9846H13.9843H13.9841H13.9839H13.9837H13.9834H13.9832H13.983H13.9828H13.9825H13.9823H13.9821H13.9818H13.9816H13.9814H13.9812H13.9809H13.9807H13.9805H13.9802H13.98H13.9798H13.9796H13.9793H13.9791H13.9789H13.9787H13.9784H13.9782H13.978H13.9777H13.9775H13.9773H13.9771H13.9768H13.9766H13.9764H13.9761H13.9759H13.9757H13.9755H13.9752H13.975H13.9748H13.9746H13.9743H13.9741H13.9739H13.9736H13.9734H13.9732H13.973H13.9727H13.9725H13.9723H13.9721H13.9718H13.9716H13.9714H13.9711H13.9709H13.9707H13.9705H13.9702H13.97H13.9698H13.9696H13.9693H13.9691H13.9689H13.9687H13.9684H13.9682H13.968H13.9677H13.9675H13.9673H13.9671H13.9668H13.9666H13.9664H13.9662H13.9659H13.9657H13.9655H13.9653H13.965H13.9648H13.9646H13.9644H13.9641H13.9639H13.9637H13.9635H13.9632H13.963H13.9628H13.9626H13.9624H13.9621H13.9619H13.9617H13.9615H13.9612H13.961H13.9608H13.9606H13.9603H13.9601H13.9599H13.9597H13.9595H13.9592H13.959H13.9588H13.9586H13.9584H13.9581H13.9579H13.9577H13.9575H13.9572H13.957H13.9568H13.9566H13.9564H13.9561H13.9559H13.9557H13.9555H13.9553H13.9551H13.9548H13.9546H13.9544H13.9542H13.954H13.9537H13.9535H13.9533H13.9531H13.9529H13.9527H13.9524H13.9522H13.952H13.9518H13.9516H13.9514H13.9511H13.9509H13.9507H13.9505H13.9503H13.9501H13.9499H13.9496H13.9494H13.9492H13.949H13.949C11.7568 16.2575 10.125 14.5511 10.125 12.46Z" fill="#5E5D5C" stroke="#5E5D5C"/>
</svg>
