<svg width="67" height="12" viewBox="0 0 67 12" fill="none" xmlns="http://www.w3.org/2000/svg">
<path opacity="0.35" d="M43.172 2.66935C43.172 1.47273 44.142 0.502686 45.3387 0.502686H62.0053C63.2019 0.502686 64.172 1.47274 64.172 2.66935V8.66935C64.172 9.86597 63.2019 10.836 62.0053 10.836H45.3387C44.142 10.836 43.172 9.86597 43.172 8.66935V2.66935Z" stroke="#1A1817"/>
<path opacity="0.4" d="M65.672 3.66936V7.66936C66.4767 7.33058 67 6.54249 67 5.66936C67 4.79622 66.4767 4.00813 65.672 3.66936Z" fill="#1A1817"/>
<path d="M44.672 3.33602C44.672 2.59964 45.269 2.00269 46.0053 2.00269H61.3387C62.075 2.00269 62.672 2.59964 62.672 3.33602V8.00268C62.672 8.73906 62.075 9.33602 61.3387 9.33602H46.0053C45.269 9.33602 44.672 8.73907 44.672 8.00269V3.33602Z" fill="#1A1817"/>
<path fill-rule="evenodd" clip-rule="evenodd" d="M30.0023 2.27733C32.2182 2.27742 34.3494 3.12886 35.9553 4.65566C36.0763 4.77354 36.2696 4.77205 36.3887 4.65233L37.5447 3.48566C37.605 3.42494 37.6386 3.34269 37.6381 3.25711C37.6376 3.17153 37.603 3.08967 37.542 3.02966C33.3269 -1.00989 26.6771 -1.00989 22.462 3.02966C22.4009 3.08963 22.3663 3.17146 22.3657 3.25704C22.3652 3.34262 22.3987 3.42489 22.459 3.48566L23.6153 4.65233C23.7344 4.77223 23.9278 4.77372 24.0487 4.65566C25.6548 3.12876 27.7862 2.27732 30.0023 2.27733ZM30.0023 6.07299C31.2198 6.07292 32.3938 6.52545 33.2963 7.34266C33.4184 7.45864 33.6107 7.45613 33.7296 7.33699L34.8843 6.17033C34.9451 6.10913 34.9789 6.02612 34.978 5.93985C34.9771 5.85359 34.9417 5.77127 34.8797 5.71133C32.1315 3.15494 27.8755 3.15494 25.1273 5.71133C25.0652 5.77127 25.0298 5.85363 25.029 5.93992C25.0282 6.02621 25.062 6.10922 25.123 6.17033L26.2773 7.33699C26.3963 7.45613 26.5886 7.45864 26.7106 7.34266C27.6125 6.52599 28.7856 6.0735 30.0023 6.07299ZM32.3153 8.62681C32.3171 8.71332 32.2831 8.79672 32.2213 8.85733L30.224 10.873C30.1654 10.9322 30.0856 10.9656 30.0023 10.9656C29.919 10.9656 29.8392 10.9322 29.7807 10.873L27.783 8.85733C27.7213 8.79668 27.6873 8.71325 27.6892 8.62674C27.691 8.54023 27.7284 8.45831 27.7927 8.40033C29.0682 7.32144 30.9364 7.32144 32.212 8.40033C32.2762 8.45836 32.3135 8.5403 32.3153 8.62681Z" fill="#1A1817"/>
<path fill-rule="evenodd" clip-rule="evenodd" d="M16.3386 0.335938H15.3386C14.7863 0.335938 14.3386 0.783653 14.3386 1.33594V10.0026C14.3386 10.5549 14.7863 11.0026 15.3386 11.0026H16.3386C16.8909 11.0026 17.3386 10.5549 17.3386 10.0026V1.33594C17.3386 0.783653 16.8909 0.335938 16.3386 0.335938ZM10.672 2.66927H11.672C12.2243 2.66927 12.672 3.11699 12.672 3.66927V10.0026C12.672 10.5549 12.2243 11.0026 11.672 11.0026H10.672C10.1197 11.0026 9.67197 10.5549 9.67197 10.0026V3.66927C9.67197 3.11699 10.1197 2.66927 10.672 2.66927ZM7.00528 5.0026H6.00528C5.45299 5.0026 5.00528 5.45032 5.00528 6.0026V10.0026C5.00528 10.5549 5.45299 11.0026 6.00528 11.0026H7.00528C7.55756 11.0026 8.00528 10.5549 8.00528 10.0026V6.0026C8.00528 5.45032 7.55756 5.0026 7.00528 5.0026ZM2.33862 7.0026H1.33862C0.786338 7.0026 0.338623 7.45032 0.338623 8.0026V10.0026C0.338623 10.5549 0.786338 11.0026 1.33862 11.0026H2.33862C2.89091 11.0026 3.33862 10.5549 3.33862 10.0026V8.0026C3.33862 7.45032 2.89091 7.0026 2.33862 7.0026Z" fill="#1A1817"/>
</svg>
