<svg width="29" height="36" viewBox="0 0 29 36" fill="none" xmlns="http://www.w3.org/2000/svg">
<g clip-path="url(#clip0_0_93)">
<path d="M5.28053 34V27.592H6.65753V34H5.28053ZM0.933531 34V27.592H2.31053V34H0.933531ZM1.38353 31.3V30.193H6.10853V31.3H1.38353ZM11.2902 34.081C10.6482 34.081 10.0932 33.946 9.6252 33.676C9.1572 33.406 8.7942 33.025 8.5362 32.533C8.2842 32.041 8.1582 31.459 8.1582 30.787C8.1582 30.121 8.2842 29.542 8.5362 29.05C8.7942 28.558 9.1572 28.18 9.6252 27.916C10.0932 27.646 10.6482 27.511 11.2902 27.511C11.9322 27.511 12.4842 27.646 12.9462 27.916C13.4142 28.18 13.7742 28.558 14.0262 29.05C14.2782 29.542 14.4042 30.121 14.4042 30.787C14.4042 31.459 14.2782 32.041 14.0262 32.533C13.7742 33.025 13.4142 33.406 12.9462 33.676C12.4842 33.946 11.9322 34.081 11.2902 34.081ZM11.2902 32.992C11.8182 32.992 12.2352 32.806 12.5412 32.434C12.8532 32.056 13.0092 31.507 13.0092 30.787C13.0092 30.067 12.8532 29.524 12.5412 29.158C12.2352 28.786 11.8182 28.6 11.2902 28.6C10.7562 28.6 10.3362 28.786 10.0302 29.158C9.7242 29.524 9.5712 30.067 9.5712 30.787C9.5712 31.513 9.7242 32.062 10.0302 32.434C10.3362 32.806 10.7562 32.992 11.2902 32.992ZM15.9195 34V27.592H17.0355L19.3485 32.875H18.8535L21.1575 27.592H22.2645V34H21.0225L21.0135 29.671L21.3375 29.752L19.5465 34H18.6375L16.8105 29.752L17.1525 29.671V34H15.9195ZM23.9568 34V27.592H28.3758V28.681H25.3338V30.193H28.1868V31.291H25.3338V32.911H28.3758V34H23.9568Z" fill="#4A43EC"/>
<path fill-rule="evenodd" clip-rule="evenodd" d="M12.9219 18.258H8.92188C7.62488 18.254 6.57388 17.207 6.56588 15.91V7.95299C6.56588 7.51899 6.76188 7.10899 7.09388 6.83199L7.80088 6.30799C8.05888 6.03499 8.08188 5.61699 7.86288 5.31199C7.64088 5.00799 7.23388 4.90599 6.89488 5.06599L6.17588 5.60499C5.44488 6.16799 5.01588 7.03099 4.99988 7.95299V15.918C5.00388 18.082 6.75788 19.836 8.92188 19.84H12.9219C13.3549 19.84 13.7029 19.488 13.7029 19.059C13.7029 18.625 13.3549 18.274 12.9219 18.274V18.258Z" fill="#4A43EC"/>
<path fill-rule="evenodd" clip-rule="evenodd" d="M23.793 7.93419C23.781 7.02319 23.363 6.16019 22.652 5.58619L16.645 0.797189C15.324 -0.265811 13.441 -0.265811 12.121 0.797189L10.219 2.18019C9.85899 2.43719 9.77699 2.93419 10.035 3.29319C10.293 3.64819 10.789 3.73019 11.148 3.47319L13.078 2.03119C13.836 1.40619 14.93 1.40619 15.688 2.03119L21.695 6.82019C22.043 7.09819 22.246 7.51219 22.254 7.95319V15.9182C22.254 17.2152 21.199 18.2662 19.906 18.2662H18.121C17.938 18.2662 17.793 18.1172 17.793 17.9342V14.3442C17.793 13.1992 16.867 12.2692 15.723 12.2662H13.113C12.562 12.2662 12.035 12.4842 11.645 12.8752C11.254 13.2662 11.035 13.7932 11.035 14.3442V15.7192C11.035 16.1482 11.387 16.5002 11.816 16.5002C12.25 16.5002 12.602 16.1482 12.602 15.7192V14.3442C12.598 14.2072 12.648 14.0782 12.746 13.9802C12.84 13.8872 12.969 13.8322 13.105 13.8322H15.715C15.992 13.8322 16.219 14.0592 16.219 14.3362V17.9342C16.223 18.9842 17.074 19.8322 18.121 19.8322H19.859C22.027 19.8322 23.781 18.0742 23.781 15.9102L23.793 7.93419Z" fill="#4A43EC"/>
</g>
<defs>
<clipPath id="clip0_0_93">
<rect width="29" height="36" fill="white"/>
</clipPath>
</defs>
</svg>
