<svg width="32" height="36" viewBox="0 0 32 36" fill="none" xmlns="http://www.w3.org/2000/svg">
<g clip-path="url(#clip0_0_103)">
<path d="M1.07777 34V27.592H2.48177V34H1.07777ZM4.16722 34V27.592H5.20222L8.65822 32.002L8.39722 32.173V27.592H9.72022V34H8.67622L5.23822 29.608L5.48122 29.419V34H4.16722ZM11.4051 34V27.592H13.8891C14.5911 27.592 15.1911 27.718 15.6891 27.97C16.1931 28.222 16.5771 28.588 16.8411 29.068C17.1111 29.542 17.2461 30.115 17.2461 30.787C17.2461 31.465 17.1141 32.044 16.8501 32.524C16.5861 32.998 16.2021 33.364 15.6981 33.622C15.2001 33.874 14.5971 34 13.8891 34H11.4051ZM12.8091 32.866H13.7901C14.4741 32.866 14.9871 32.695 15.3291 32.353C15.6711 32.005 15.8421 31.483 15.8421 30.787C15.8421 29.413 15.1581 28.726 13.7901 28.726H12.8091V32.866ZM21.6915 34.081C21.0495 34.081 20.4945 33.946 20.0265 33.676C19.5585 33.406 19.1955 33.025 18.9375 32.533C18.6855 32.041 18.5595 31.459 18.5595 30.787C18.5595 30.121 18.6855 29.542 18.9375 29.05C19.1955 28.558 19.5585 28.18 20.0265 27.916C20.4945 27.646 21.0495 27.511 21.6915 27.511C22.3335 27.511 22.8855 27.646 23.3475 27.916C23.8155 28.18 24.1755 28.558 24.4275 29.05C24.6795 29.542 24.8055 30.121 24.8055 30.787C24.8055 31.459 24.6795 32.041 24.4275 32.533C24.1755 33.025 23.8155 33.406 23.3475 33.676C22.8855 33.946 22.3335 34.081 21.6915 34.081ZM21.6915 32.992C22.2195 32.992 22.6365 32.806 22.9425 32.434C23.2545 32.056 23.4105 31.507 23.4105 30.787C23.4105 30.067 23.2545 29.524 22.9425 29.158C22.6365 28.786 22.2195 28.6 21.6915 28.6C21.1575 28.6 20.7375 28.786 20.4315 29.158C20.1255 29.524 19.9725 30.067 19.9725 30.787C19.9725 31.513 20.1255 32.062 20.4315 32.434C20.7375 32.806 21.1575 32.992 21.6915 32.992ZM26.8933 34H25.2553L27.6943 30.751L28.4953 29.725L30.0433 27.592H31.6813L29.2873 30.751L28.4953 31.786L26.8933 34ZM30.0973 34L28.4953 31.786L27.6943 30.751L25.3273 27.592H26.9563L28.4953 29.725L29.2873 30.751L31.7353 34H30.0973Z" fill="#242424"/>
<path fill-rule="evenodd" clip-rule="evenodd" d="M11.594 8.809C12.25 8.809 12.781 9.344 12.781 10C12.781 10.656 12.25 11.187 11.594 11.187C10.938 11.187 10.402 10.656 10.402 10C10.402 9.344 10.938 8.809 11.594 8.809ZM20.398 8.809C21.054 8.809 21.586 9.344 21.586 10C21.586 10.652 21.054 11.187 20.398 11.187C19.742 11.187 19.211 10.652 19.211 10C19.211 9.344 19.742 8.809 20.398 8.809ZM15.996 8.809C16.652 8.809 17.183 9.344 17.183 10C17.183 10.652 16.652 11.187 15.996 11.187C15.34 11.187 14.809 10.652 14.809 10C14.809 9.344 15.34 8.809 15.996 8.809ZM16.008 0C17.625 0 19.234 0.398 20.668 1.152C25.543 3.727 27.418 9.785 24.847 14.664C23.094 17.988 19.64 20 15.996 20C15.281 20 14.562 19.922 13.848 19.766C13.445 19.676 13.191 19.273 13.277 18.871C13.367 18.469 13.766 18.215 14.172 18.301C17.898 19.129 21.742 17.344 23.523 13.965C25.707 9.816 24.113 4.664 19.969 2.48C18.754 1.836 17.383 1.496 16.008 1.496C11.309 1.496 7.496 5.312 7.496 10C7.496 11.363 7.828 12.723 8.461 13.93L8.652 14.305C8.887 14.746 8.938 15.293 8.785 15.789C8.573 16.344 8.402 16.883 8.258 17.422C8.816 17.254 9.504 17.004 10 16.824L10.203 16.75C10.59 16.605 11.02 16.809 11.16 17.199C11.301 17.586 11.102 18.016 10.711 18.156L10.512 18.23C9.77 18.5 8.754 18.867 8.07 19.019C8.012 19.035 7.948 19.043 7.891 19.039C7.434 19.039 7.152 18.855 7 18.695C6.762 18.457 6.648 18.121 6.664 17.695C6.664 17.644 6.672 17.598 6.68 17.547C6.859 16.789 7.09 16.035 7.371 15.301C7.391 15.23 7.379 15.101 7.32 14.992L7.129 14.617C6.391 13.203 6 11.601 6 9.996C6 4.484 10.484 0 15.996 0H16.008Z" fill="#242424"/>
</g>
<defs>
<clipPath id="clip0_0_103">
<rect width="32" height="36" fill="white"/>
</clipPath>
</defs>
</svg>
