<svg width="41" height="36" viewBox="0 0 41 36" fill="none" xmlns="http://www.w3.org/2000/svg">
<g clip-path="url(#clip0_0_110)">
<path d="M0.959019 34V27.592H3.86602C4.58602 27.592 5.13802 27.763 5.52202 28.105C5.91202 28.447 6.10702 28.912 6.10702 29.5C6.10702 30.082 5.90902 30.547 5.51302 30.895C5.12302 31.237 4.57402 31.408 3.86602 31.408H2.36302V34H0.959019ZM2.36302 30.337H3.68602C4.05802 30.337 4.33402 30.265 4.51402 30.121C4.69402 29.977 4.78402 29.773 4.78402 29.509C4.78402 29.239 4.69402 29.032 4.51402 28.888C4.34002 28.744 4.06402 28.672 3.68602 28.672H2.36302V30.337ZM7.43226 34V27.592H10.2853C11.0353 27.592 11.6023 27.757 11.9863 28.087C12.3703 28.411 12.5623 28.873 12.5623 29.473C12.5623 30.043 12.3643 30.502 11.9683 30.85C11.5723 31.192 11.0203 31.363 10.3123 31.363L11.0503 31.21C11.2723 31.21 11.4703 31.276 11.6443 31.408C11.8243 31.54 11.9653 31.741 12.0673 32.011L12.8413 34H11.3563L10.5373 31.867C10.4713 31.693 10.3663 31.576 10.2223 31.516C10.0783 31.45 9.91326 31.417 9.72726 31.417H8.81826V34H7.43226ZM8.80926 30.346H10.0783C10.4803 30.346 10.7743 30.277 10.9603 30.139C11.1463 30.001 11.2393 29.791 11.2393 29.509C11.2393 29.221 11.1463 29.011 10.9603 28.879C10.7803 28.741 10.4863 28.672 10.0783 28.672H8.80926V30.346ZM17.1034 34.081C16.4614 34.081 15.9064 33.946 15.4384 33.676C14.9704 33.406 14.6074 33.025 14.3494 32.533C14.0974 32.041 13.9714 31.459 13.9714 30.787C13.9714 30.121 14.0974 29.542 14.3494 29.05C14.6074 28.558 14.9704 28.18 15.4384 27.916C15.9064 27.646 16.4614 27.511 17.1034 27.511C17.7454 27.511 18.2974 27.646 18.7594 27.916C19.2274 28.18 19.5874 28.558 19.8394 29.05C20.0914 29.542 20.2174 30.121 20.2174 30.787C20.2174 31.459 20.0914 32.041 19.8394 32.533C19.5874 33.025 19.2274 33.406 18.7594 33.676C18.2974 33.946 17.7454 34.081 17.1034 34.081ZM17.1034 32.992C17.6314 32.992 18.0484 32.806 18.3544 32.434C18.6664 32.056 18.8224 31.507 18.8224 30.787C18.8224 30.067 18.6664 29.524 18.3544 29.158C18.0484 28.786 17.6314 28.6 17.1034 28.6C16.5694 28.6 16.1494 28.786 15.8434 29.158C15.5374 29.524 15.3844 30.067 15.3844 30.787C15.3844 31.513 15.5374 32.062 15.8434 32.434C16.1494 32.806 16.5694 32.992 17.1034 32.992ZM21.7147 34V27.592H26.0347V28.708H23.1007V30.193H25.8547V31.3H23.1007V34H21.7147ZM27.3178 34V27.592H28.7218V34H27.3178ZM30.4073 34V27.592H31.8113V32.857H34.6733V34H30.4073ZM35.9313 34V27.592H40.3503V28.681H37.3083V30.193H40.1613V31.291H37.3083V32.911H40.3503V34H35.9313Z" fill="#242424"/>
<path fill-rule="evenodd" clip-rule="evenodd" d="M19.9923 1.53133C18.9803 1.52733 18.0122 1.93033 17.2973 2.64833C16.5823 3.36733 16.1803 4.34433 16.1803 5.35933C16.1762 6.91033 17.1023 8.31233 18.5273 8.91033C19.9493 9.50433 21.5903 9.18033 22.6833 8.08233C23.7733 6.98833 24.1013 5.33633 23.5123 3.90233C22.9223 2.46933 21.5312 1.53133 19.9923 1.53133ZM17.9653 0.40633C19.9532 -0.42167 22.2463 0.0393305 23.7652 1.57433C25.2892 3.10533 25.7422 5.41433 24.9142 7.41433C24.0903 9.41833 22.1442 10.7233 19.9922 10.7193C17.0553 10.7113 14.6762 8.31633 14.6762 5.35933L14.6842 5.12933C14.7703 3.05233 16.0472 1.20733 17.9653 0.40633ZM17.8833 12.7663C19.3203 12.6453 20.7662 12.6453 22.2032 12.7663C22.9882 12.8213 23.7692 12.9343 24.5352 13.1103C26.1952 13.4463 27.2812 14.1063 27.7343 15.0743C28.0972 15.8753 28.0863 16.8013 27.7072 17.5983C27.2462 18.5673 26.1602 19.2273 24.4722 19.5713C23.7113 19.7423 22.9332 19.8523 22.1482 19.9033C21.2852 20.0003 20.5513 20.0003 19.8672 20.0003H19.5982C19.2112 19.9573 18.9183 19.6293 18.9183 19.2393C18.9183 18.8483 19.2112 18.5203 19.5982 18.4773H20.1952C20.7932 18.4693 21.3982 18.4423 22.0002 18.3913C22.7113 18.3443 23.4183 18.2423 24.1173 18.0903C25.3123 17.8283 26.0663 17.4493 26.3013 16.9463C26.4843 16.5633 26.4843 16.1173 26.3013 15.7353C26.0663 15.2233 25.3123 14.8283 24.1403 14.5903C23.4333 14.4303 22.7153 14.3243 21.9923 14.2813C20.6413 14.1563 19.2812 14.1563 17.9303 14.2813C17.2153 14.3283 16.5043 14.4263 15.8052 14.5783C14.6052 14.8443 13.8633 15.2233 13.6213 15.7233C13.5312 15.9143 13.4883 16.1213 13.4883 16.3323C13.4883 16.5433 13.5312 16.7543 13.6213 16.9463C14.0352 17.5203 14.6683 17.8913 15.3672 17.9773L15.4692 18.0043C15.6992 18.0823 15.8793 18.2703 15.9492 18.5123C16.0312 18.7813 15.9533 19.0783 15.7503 19.2783C15.5473 19.4773 15.2503 19.5433 14.9843 19.4533C13.8553 19.2703 12.8673 18.5943 12.2812 17.6063C11.9062 16.8093 11.9062 15.8793 12.2812 15.0823C12.7463 14.0863 13.8283 13.4463 15.5003 13.1023C16.2853 12.9303 17.0823 12.8213 17.8833 12.7663Z" fill="#242424"/>
</g>
<defs>
<clipPath id="clip0_0_110">
<rect width="41" height="36" fill="white"/>
</clipPath>
</defs>
</svg>
