<svg width="34" height="38" viewBox="0 0 34 38" fill="none" xmlns="http://www.w3.org/2000/svg">
<path d="M0.544255 32.823C0.544255 32.163 0.667255 31.59 0.913255 31.104C1.16525 30.612 1.52525 30.231 1.99325 29.961C2.46125 29.691 3.01625 29.556 3.65825 29.556C4.30025 29.556 4.85525 29.691 5.32325 29.961C5.79125 30.231 6.15125 30.612 6.40325 31.104C6.66126 31.59 6.79026 32.16 6.79026 32.814C6.79026 33.48 6.66126 34.059 6.40325 34.551C6.15125 35.037 5.79125 35.418 5.32325 35.694C4.85525 35.964 4.30025 36.099 3.65825 36.099C3.01625 36.099 2.46125 35.964 1.99325 35.694C1.53125 35.418 1.17425 35.034 0.922255 34.542C0.670255 34.05 0.544255 33.477 0.544255 32.823ZM2.01125 32.823C2.01125 33.477 2.14625 33.99 2.41625 34.362C2.69225 34.728 3.10625 34.911 3.65825 34.911C4.19825 34.911 4.60925 34.728 4.89126 34.362C5.17325 33.99 5.31425 33.477 5.31425 32.823C5.31425 32.163 5.17325 31.653 4.89126 31.293C4.61525 30.927 4.20425 30.744 3.65825 30.744C3.10625 30.744 2.69225 30.927 2.41625 31.293C2.14625 31.653 2.01125 32.163 2.01125 32.823ZM8.28755 36V29.655H11.1676C11.8816 29.655 12.4336 29.826 12.8236 30.168C13.2136 30.504 13.4086 30.975 13.4086 31.581C13.4086 31.977 13.3186 32.319 13.1386 32.607C12.9646 32.889 12.7126 33.108 12.3826 33.264C12.0586 33.414 11.6686 33.489 11.2126 33.489L11.3206 33.291H11.6896C11.9476 33.291 12.1756 33.36 12.3736 33.498C12.5776 33.636 12.7456 33.837 12.8776 34.101L13.8226 36H12.2746L11.2936 33.957C11.2216 33.783 11.1076 33.669 10.9516 33.615C10.8016 33.555 10.6276 33.525 10.4296 33.525H9.69155V36H8.28755ZM9.69155 32.517H10.9246C11.2906 32.517 11.5696 32.442 11.7616 32.292C11.9536 32.142 12.0496 31.92 12.0496 31.626C12.0496 31.332 11.9536 31.113 11.7616 30.969C11.5696 30.819 11.2906 30.744 10.9246 30.744H9.69155V32.517ZM15.0596 36V29.655H17.4806C18.2186 29.655 18.8426 29.781 19.3526 30.033C19.8626 30.285 20.2466 30.648 20.5046 31.122C20.7686 31.59 20.9006 32.157 20.9006 32.823C20.9006 33.483 20.7686 34.05 20.5046 34.524C20.2466 34.998 19.8626 35.364 19.3526 35.622C18.8426 35.874 18.2186 36 17.4806 36H15.0596ZM16.4636 34.848H17.3996C18.1076 34.848 18.6326 34.683 18.9746 34.353C19.3226 34.017 19.4966 33.507 19.4966 32.823C19.4966 32.133 19.3226 31.623 18.9746 31.293C18.6326 30.963 18.1076 30.798 17.3996 30.798H16.4636V34.848ZM22.403 36V29.655H26.813V30.744H23.744V32.229H26.597V33.327H23.744V34.911H26.813V36H22.403ZM28.1907 36V29.655H31.0707C31.7847 29.655 32.3367 29.826 32.7267 30.168C33.1167 30.504 33.3117 30.975 33.3117 31.581C33.3117 31.977 33.2217 32.319 33.0417 32.607C32.8677 32.889 32.6157 33.108 32.2857 33.264C31.9617 33.414 31.5717 33.489 31.1157 33.489L31.2237 33.291H31.5927C31.8507 33.291 32.0787 33.36 32.2767 33.498C32.4807 33.636 32.6487 33.837 32.7807 34.101L33.7257 36H32.1777L31.1967 33.957C31.1247 33.783 31.0107 33.669 30.8547 33.615C30.7047 33.555 30.5307 33.525 30.3327 33.525H29.5947V36H28.1907ZM29.5947 32.517H30.8277C31.1937 32.517 31.4727 32.442 31.6647 32.292C31.8567 32.142 31.9527 31.92 31.9527 31.626C31.9527 31.332 31.8567 31.113 31.6647 30.969C31.4727 30.819 31.1937 30.744 30.8277 30.744H29.5947V32.517Z" fill="#242424"/>
<path d="M24.575 20.25H9.425C9.24045 20.2491 9.06254 20.1811 8.92451 20.0586C8.78648 19.9361 8.69778 19.7675 8.675 19.5844L7.34375 7.58438C7.33191 7.47982 7.34221 7.37394 7.37396 7.27363C7.40572 7.17331 7.45823 7.0808 7.52808 7.0021C7.59794 6.92341 7.68357 6.8603 7.77941 6.81686C7.87525 6.77343 7.97916 6.75065 8.08438 6.75H25.9156C26.0209 6.75065 26.1248 6.77343 26.2206 6.81686C26.3164 6.8603 26.4021 6.92341 26.4719 7.0021C26.5418 7.0808 26.5943 7.17331 26.626 7.27363C26.6578 7.37394 26.6681 7.47982 26.6563 7.58438L25.325 19.5844C25.3022 19.7675 25.2135 19.9361 25.0755 20.0586C24.9375 20.1811 24.7596 20.2491 24.575 20.25V20.25Z" stroke="#242424" stroke-width="1.5" stroke-linecap="round" stroke-linejoin="round"/>
<path d="M13.25 9.75V6.75C13.25 5.75544 13.6451 4.80161 14.3483 4.09835C15.0516 3.39509 16.0054 3 17 3C17.9946 3 18.9484 3.39509 19.6517 4.09835C20.3549 4.80161 20.75 5.75544 20.75 6.75V9.75" stroke="#242424" stroke-width="1.5" stroke-linecap="round" stroke-linejoin="round"/>
</svg>
